<svg width="860" height="260" viewBox="0 0 860 260" fill="none" xmlns="http://www.w3.org/2000/svg" role="img" aria-labelledby="title desc">
  <title id="title">Sofiene Zayati GitHub Signal</title>
  <desc id="desc">Static GitHub signal summary card for Sofiene Zayati profile README.</desc>
  <defs>
    <linearGradient id="panel" x1="0" y1="0" x2="860" y2="260" gradientUnits="userSpaceOnUse">
      <stop stop-color="#0D1117"/>
      <stop offset="0.55" stop-color="#0A1620"/>
      <stop offset="1" stop-color="#07131A"/>
    </linearGradient>
    <linearGradient id="cyan" x1="100" y1="0" x2="760" y2="260" gradientUnits="userSpaceOnUse">
      <stop stop-color="#00F5FF"/>
      <stop offset="1" stop-color="#5DF2D6"/>
    </linearGradient>
    <filter id="glow" x="-20%" y="-20%" width="140%" height="140%">
      <feGaussianBlur stdDeviation="4" result="blur"/>
      <feMerge>
        <feMergeNode in="blur"/>
        <feMergeNode in="SourceGraphic"/>
      </feMerge>
    </filter>
  </defs>

  <rect x="1" y="1" width="858" height="258" rx="24" fill="url(#panel)" stroke="#30363D" stroke-width="2"/>
  <path d="M38 56C95 26 151 25 210 50C289 83 354 82 424 50C509 11 592 24 663 57C728 87 789 83 822 64" stroke="url(#cyan)" stroke-opacity="0.18" stroke-width="2"/>
  <circle cx="74" cy="74" r="4" fill="#00F5FF" filter="url(#glow)"/>
  <circle cx="786" cy="63" r="4" fill="#00F5FF" filter="url(#glow)"/>

  <text x="430" y="48" text-anchor="middle" fill="#E6EDF3" font-family="Segoe UI, Inter, Arial, sans-serif" font-size="24" font-weight="700">GitHub Signal</text>
  <text x="430" y="74" text-anchor="middle" fill="#8B949E" font-family="Segoe UI, Inter, Arial, sans-serif" font-size="13">SofieneZayati · profile activity snapshot</text>

  <g transform="translate(54 104)">
    <rect width="230" height="104" rx="18" fill="#0B121A" stroke="#30363D"/>
    <text x="115" y="45" text-anchor="middle" fill="#E6EDF3" font-family="Segoe UI, Inter, Arial, sans-serif" font-size="34" font-weight="800">182</text>
    <text x="115" y="70" text-anchor="middle" fill="#8B949E" font-family="Segoe UI, Inter, Arial, sans-serif" font-size="14">Total Contributions</text>
    <text x="115" y="91" text-anchor="middle" fill="#6E7681" font-family="Segoe UI, Inter, Arial, sans-serif" font-size="12">May 20, 2019 · Present</text>
  </g>

  <g transform="translate(315 95)">
    <circle cx="115" cy="61" r="50" stroke="#30363D" stroke-width="9"/>
    <path d="M115 11a50 50 0 1 1-1 0" stroke="url(#cyan)" stroke-width="9" stroke-linecap="round" filter="url(#glow)"/>
    <path d="M115 0c10 8 8 20 0 26c-8-6-10-18 0-26Z" fill="#00F5FF"/>
    <text x="115" y="69" text-anchor="middle" fill="#E6EDF3" font-family="Segoe UI, Inter, Arial, sans-serif" font-size="32" font-weight="800">2</text>
    <text x="115" y="126" text-anchor="middle" fill="#00F5FF" font-family="Segoe UI, Inter, Arial, sans-serif" font-size="14" font-weight="800">Current Streak</text>
    <text x="115" y="148" text-anchor="middle" fill="#8B949E" font-family="Segoe UI, Inter, Arial, sans-serif" font-size="12">Jul 8 · Jul 9</text>
  </g>

  <g transform="translate(576 104)">
    <rect width="230" height="104" rx="18" fill="#0B121A" stroke="#30363D"/>
    <text x="115" y="45" text-anchor="middle" fill="#E6EDF3" font-family="Segoe UI, Inter, Arial, sans-serif" font-size="34" font-weight="800">5</text>
    <text x="115" y="70" text-anchor="middle" fill="#8B949E" font-family="Segoe UI, Inter, Arial, sans-serif" font-size="14">Longest Streak</text>
    <text x="115" y="91" text-anchor="middle" fill="#6E7681" font-family="Segoe UI, Inter, Arial, sans-serif" font-size="12">Apr 4 · Apr 8</text>
  </g>

  <g transform="translate(243 224)">
    <rect width="374" height="22" rx="11" fill="#081017" stroke="#1F6FEB" stroke-opacity="0.45"/>
    <text x="187" y="15" text-anchor="middle" fill="#8B949E" font-family="Segoe UI, Inter, Arial, sans-serif" font-size="12">React · NestJS · FastAPI · Python · TypeScript · IoT</text>
  </g>
</svg>
